<svg width="158" height="29" viewBox="0 0 158 29" fill="none" xmlns="http://www.w3.org/2000/svg">
<g clip-path="url(#clip0_185_418)">
<mask id="mask0_185_418" style="mask-type:alpha" maskUnits="userSpaceOnUse" x="0" y="0" width="26" height="26">
<path d="M7.31018 0.802341C7.31018 0.35922 7.6694 0 8.11252 0H17.3841C17.8272 0 18.1863 0.359221 18.1863 0.802342V24.6943C18.1863 25.1374 17.8272 25.4966 17.3841 25.4966H8.11252C7.6694 25.4966 7.31018 25.1374 7.31018 24.6943V0.802341Z" fill="url(#paint0_linear_185_418)"/>
<path d="M0.802341 18.1848C0.35922 18.1848 0 17.8256 0 17.3825V8.11093C0 7.66781 0.359221 7.30859 0.802342 7.30859H24.6943C25.1374 7.30859 25.4966 7.66781 25.4966 8.11093V17.3825C25.4966 17.8256 25.1374 18.1848 24.6943 18.1848H0.802341Z" fill="url(#paint1_linear_185_418)"/>
</mask>
<g mask="url(#mask0_185_418)">
<path d="M16.2696 2.00422C16.2696 11.0653 8.9242 18.4108 -0.136875 18.4108C-9.19796 18.4108 -16.5435 11.0653 -16.5435 2.00422C-16.5435 -7.05686 -9.19796 -14.4023 -0.136875 -14.4023C8.9242 -14.4023 16.2696 -7.05686 16.2696 2.00422Z" fill="url(#paint2_linear_185_418)"/>
<g filter="url(#filter0_dd_185_418)">
<path d="M14.2257 -1.10908C14.2257 7.952 6.88022 15.2975 -2.18086 15.2975C-11.2419 15.2975 -18.5874 7.952 -18.5874 -1.10908C-18.5874 -10.1701 -11.2419 -17.5156 -2.18086 -17.5156C6.88022 -17.5156 14.2257 -10.1701 14.2257 -1.10908Z" fill="url(#paint3_linear_185_418)"/>
</g>
<path d="M33.2505 37.9152C25.5036 42.4958 15.5101 39.9289 10.9295 32.1819C6.34897 24.435 8.91584 14.4415 16.6628 9.86094C24.4098 5.28036 34.4032 7.84723 38.9838 15.5942C43.5644 23.3412 40.9975 33.3346 33.2505 37.9152Z" fill="url(#paint4_linear_185_418)"/>
<g filter="url(#filter1_dd_185_418)">
<path d="M27.0258 42.6321C18.071 41.7324 11.5411 33.7437 12.4408 24.789C13.3406 15.8342 21.3292 9.30425 30.284 10.204C39.2388 11.1038 45.7687 19.0924 44.8689 28.0472C43.9692 37.002 35.9806 43.5319 27.0258 42.6321Z" fill="url(#paint5_linear_185_418)"/>
</g>
</g>
<path d="M21.1129 22.8439C22.0686 22.8439 22.8434 22.0691 22.8434 21.1134C22.8434 20.1576 22.0686 19.3828 21.1129 19.3828C20.1571 19.3828 19.3823 20.1576 19.3823 21.1134C19.3823 22.0691 20.1571 22.8439 21.1129 22.8439Z" fill="#07BE8F"/>
<path d="M23.7235 24.6756C24.3567 24.6756 24.8699 24.1623 24.8699 23.5292C24.8699 22.8961 24.3567 22.3828 23.7235 22.3828C23.0904 22.3828 22.5771 22.8961 22.5771 23.5292C22.5771 24.1623 23.0904 24.6756 23.7235 24.6756Z" fill="#1F9CC6"/>
<path d="M12.7483 29.001C18.5528 29.001 23.2584 28.5653 23.2584 28.0278C23.2584 27.4904 18.5528 27.0547 12.7483 27.0547C6.94369 27.0547 2.23816 27.4904 2.23816 28.0278C2.23816 28.5653 6.94369 29.001 12.7483 29.001Z" fill="#479681" fill-opacity="0.14"/>
<path d="M151.318 22.648C150.62 22.648 149.9 22.5832 149.161 22.4536C148.421 22.3317 147.735 22.183 147.102 22.0077C146.469 21.8247 145.968 21.6494 145.598 21.4817L145.968 18.3717C146.543 18.6308 147.143 18.8709 147.768 19.092C148.392 19.3131 149.033 19.4922 149.691 19.6294C150.348 19.7666 151.014 19.8352 151.688 19.8352C152.526 19.8352 153.2 19.6828 153.71 19.3779C154.219 19.0729 154.474 18.608 154.474 17.9829C154.474 17.5027 154.33 17.1177 154.043 16.8281C153.755 16.5308 153.315 16.2678 152.724 16.0391C152.132 15.8028 151.376 15.536 150.455 15.2387C149.535 14.9414 148.709 14.606 147.977 14.2325C147.246 13.8514 146.666 13.3712 146.239 12.7918C145.812 12.2125 145.598 11.4731 145.598 10.5736C145.598 9.68939 145.832 8.90425 146.301 8.21821C146.769 7.52454 147.468 6.98333 148.396 6.59457C149.333 6.19819 150.496 6 151.885 6C152.937 6 153.94 6.11053 154.893 6.33159C155.847 6.54502 156.66 6.77752 157.334 7.02907L157.014 10.0248C156.044 9.62079 155.132 9.31588 154.277 9.11007C153.43 8.89663 152.567 8.78991 151.688 8.78991C150.768 8.78991 150.057 8.93093 149.555 9.21297C149.054 9.49501 148.803 9.91807 148.803 10.4822C148.803 10.9319 148.943 11.294 149.222 11.5684C149.502 11.8428 149.9 12.0791 150.418 12.2773C150.936 12.4679 151.557 12.6699 152.28 12.8833C153.529 13.2492 154.577 13.6532 155.423 14.0953C156.278 14.5298 156.919 15.0596 157.347 15.6847C157.782 16.3021 158 17.0682 158 17.9829C158 18.4403 157.922 18.9396 157.766 19.4808C157.61 20.0144 157.301 20.5213 156.841 21.0015C156.381 21.4817 155.707 21.8781 154.819 22.1906C153.94 22.4955 152.773 22.648 151.318 22.648Z" fill="#0F172A"/>
<path d="M128.302 22.3319V6.32422H131.458V12.6587H139.348V6.32422H142.504V22.3319H139.348V15.4029H131.458V22.3319H128.302Z" fill="#0F172A"/>
<path d="M114.289 22.3319V6.32422H125.335V9.15987H117.519V12.5672H123.584V15.4029H117.519V19.4963H125.581V22.3319H114.289Z" fill="#0F172A"/>
<path d="M98.665 22.5566C98.0075 22.5566 97.4075 22.4232 96.8651 22.1564C96.3227 21.882 95.8912 21.4895 95.5706 20.9787C95.2501 20.468 95.0898 19.8506 95.0898 19.1264C95.0898 18.4785 95.2501 17.9258 95.5706 17.4685C95.8994 17.0035 96.3268 16.6185 96.8528 16.3136C97.387 16.0011 97.9623 15.7572 98.5787 15.5818C99.2033 15.3989 99.8156 15.2655 100.416 15.1817C101.024 15.0978 101.558 15.0483 102.018 15.033C101.985 14.3775 101.805 13.901 101.476 13.6038C101.147 13.3065 100.588 13.1578 99.7992 13.1578C99.2485 13.1578 98.7102 13.2302 98.1842 13.3751C97.6664 13.5123 97.0788 13.7295 96.4213 14.0268L96.1501 11.7171C96.8898 11.3817 97.6294 11.1302 98.3691 10.9625C99.117 10.7948 99.8732 10.7109 100.638 10.7109C101.558 10.7109 102.351 10.8634 103.017 11.1683C103.683 11.4732 104.196 11.9649 104.558 12.6433C104.919 13.3141 105.1 14.2021 105.1 15.3074V18.3946C105.1 18.9663 105.129 19.3818 105.187 19.6409C105.244 19.8925 105.351 20.0526 105.507 20.1212C105.663 20.1898 105.889 20.2241 106.185 20.2241H106.58L106.308 22.5566H105.199C104.739 22.5566 104.328 22.4995 103.966 22.3851C103.613 22.2784 103.309 22.1259 103.054 21.9278C102.799 21.7296 102.594 21.4971 102.437 21.2303C102.035 21.6495 101.488 21.9773 100.798 22.2136C100.116 22.4423 99.4047 22.5566 98.665 22.5566ZM99.9471 20.3842C100.218 20.3842 100.555 20.3194 100.958 20.1898C101.361 20.0526 101.722 19.8429 102.043 19.5609V16.9539C101.468 16.9768 100.892 17.0645 100.317 17.2169C99.7417 17.3694 99.2609 17.5942 98.8746 17.8915C98.4883 18.1888 98.2952 18.5623 98.2952 19.0121C98.2952 19.4771 98.4267 19.8239 98.6897 20.0526C98.9527 20.2736 99.3718 20.3842 99.9471 20.3842Z" fill="#0F172A"/>
<path d="M88.0081 22.3307V10.8967H90.8682L90.9422 12.1087C91.2545 11.7885 91.6942 11.4684 92.2613 11.1482C92.8284 10.828 93.4489 10.668 94.1228 10.668C94.3201 10.668 94.5009 10.6832 94.6653 10.7137L94.4434 13.5036C94.2625 13.4579 94.0817 13.4274 93.9009 13.4121C93.7283 13.3969 93.5557 13.3893 93.3831 13.3893C92.8653 13.3893 92.3928 13.4998 91.9654 13.7209C91.538 13.9419 91.238 14.2125 91.0654 14.5327V22.3307H88.0081Z" fill="#0F172A"/>
<path d="M79.5433 22.5594C78.2037 22.5594 77.0613 22.2888 76.1161 21.7476C75.171 21.2064 74.4477 20.486 73.9464 19.5865C73.4532 18.6871 73.2067 17.7037 73.2067 16.6366C73.2067 15.5617 73.4532 14.5708 73.9464 13.6637C74.4477 12.7566 75.171 12.0324 76.1161 11.4912C77.0613 10.9424 78.2037 10.668 79.5433 10.668C80.883 10.668 82.0254 10.9424 82.9706 11.4912C83.9157 12.0324 84.6349 12.7566 85.128 13.6637C85.6293 14.5708 85.88 15.5617 85.88 16.6366C85.88 17.7037 85.6293 18.6871 85.128 19.5865C84.6349 20.486 83.9157 21.2064 82.9706 21.7476C82.0254 22.2888 80.883 22.5594 79.5433 22.5594ZM79.5433 20.2268C80.5707 20.2268 81.3597 19.8953 81.9103 19.2321C82.4692 18.5613 82.7487 17.6961 82.7487 16.6366C82.7487 15.5617 82.4692 14.6889 81.9103 14.0182C81.3597 13.3397 80.5707 13.0005 79.5433 13.0005C78.5242 13.0005 77.7352 13.3397 77.1763 14.0182C76.6175 14.6889 76.338 15.5617 76.338 16.6366C76.338 17.6961 76.6175 18.5613 77.1763 19.2321C77.7352 19.8953 78.5242 20.2268 79.5433 20.2268Z" fill="#0F172A"/>
<path d="M61.0367 22.3286L65.1297 16.6116L61.0367 10.8945H64.6859L66.9296 14.2104L69.0007 10.8945H72.6499L68.5569 16.6116L72.6499 22.3286H69.0007L66.757 19.0127L64.6859 22.3286H61.0367Z" fill="#0F172A"/>
<path d="M55.5693 22.5566C54.0817 22.5566 52.8407 22.2822 51.8462 21.7334C50.86 21.1769 50.1203 20.4451 49.6271 19.538C49.134 18.6233 48.8875 17.6247 48.8875 16.5423C48.8875 15.498 49.1176 14.5337 49.5778 13.6495C50.0463 12.7653 50.7285 12.0563 51.6243 11.5228C52.5201 10.9815 53.6132 10.7109 54.9036 10.7109C56.0871 10.7109 57.0733 10.9358 57.8623 11.3855C58.6513 11.8353 59.2431 12.4375 59.6376 13.1921C60.0321 13.9392 60.2294 14.7662 60.2294 15.6733C60.2294 15.9249 60.2129 16.1802 60.18 16.4394C60.1472 16.691 60.0979 16.9539 60.0321 17.2284H52.0681C52.1832 17.9373 52.4215 18.5128 52.7831 18.9549C53.153 19.3894 53.6009 19.7095 54.1269 19.9154C54.6611 20.1212 55.2323 20.2241 55.8405 20.2241C56.5556 20.2241 57.2213 20.1402 57.8377 19.9725C58.4541 19.7972 59.0212 19.5685 59.539 19.2865L59.6869 21.6876C59.2184 21.9163 58.6349 22.1183 57.9363 22.2936C57.2377 22.469 56.4487 22.5566 55.5693 22.5566ZM52.1421 15.3074H57.1227C57.1227 14.9644 57.0528 14.6214 56.9131 14.2784C56.7734 13.9277 56.5391 13.6342 56.2104 13.3979C55.8898 13.1616 55.4542 13.0435 54.9036 13.0435C54.1146 13.0435 53.4941 13.2569 53.042 13.6838C52.59 14.1107 52.29 14.6519 52.1421 15.3074Z" fill="#0F172A"/>
<path d="M33 22.3319V6.32422H36.1067L43.4789 16.6606V6.32422H46.6349V22.3319H44.046L36.156 11.3552V22.3319H33Z" fill="#0F172A"/>
</g>
<defs>
<filter id="filter0_dd_185_418" x="-42.9874" y="-37.1156" width="81.6131" height="81.6125" filterUnits="userSpaceOnUse" color-interpolation-filters="sRGB">
<feFlood flood-opacity="0" result="BackgroundImageFix"/>
<feColorMatrix in="SourceAlpha" type="matrix" values="0 0 0 0 0 0 0 0 0 0 0 0 0 0 0 0 0 0 127 0" result="hardAlpha"/>
<feOffset dy="4"/>
<feGaussianBlur stdDeviation="6.5"/>
<feColorMatrix type="matrix" values="0 0 0 0 0.0745098 0 0 0 0 0.0627451 0 0 0 0 0.133333 0 0 0 0.06 0"/>
<feBlend mode="normal" in2="BackgroundImageFix" result="effect1_dropShadow_185_418"/>
<feColorMatrix in="SourceAlpha" type="matrix" values="0 0 0 0 0 0 0 0 0 0 0 0 0 0 0 0 0 0 127 0" result="hardAlpha"/>
<feOffset dy="4.8"/>
<feGaussianBlur stdDeviation="12.2"/>
<feColorMatrix type="matrix" values="0 0 0 0 0.0745098 0 0 0 0 0.0627451 0 0 0 0 0.133333 0 0 0 0.1 0"/>
<feBlend mode="normal" in2="effect1_dropShadow_185_418" result="effect2_dropShadow_185_418"/>
<feBlend mode="normal" in="SourceGraphic" in2="effect2_dropShadow_185_418" result="shape"/>
</filter>
<filter id="filter1_dd_185_418" x="-12.0421" y="-9.47891" width="81.3939" height="81.3937" filterUnits="userSpaceOnUse" color-interpolation-filters="sRGB">
<feFlood flood-opacity="0" result="BackgroundImageFix"/>
<feColorMatrix in="SourceAlpha" type="matrix" values="0 0 0 0 0 0 0 0 0 0 0 0 0 0 0 0 0 0 127 0" result="hardAlpha"/>
<feOffset dy="4"/>
<feGaussianBlur stdDeviation="6.5"/>
<feColorMatrix type="matrix" values="0 0 0 0 0.0745098 0 0 0 0 0.0627451 0 0 0 0 0.133333 0 0 0 0.06 0"/>
<feBlend mode="normal" in2="BackgroundImageFix" result="effect1_dropShadow_185_418"/>
<feColorMatrix in="SourceAlpha" type="matrix" values="0 0 0 0 0 0 0 0 0 0 0 0 0 0 0 0 0 0 127 0" result="hardAlpha"/>
<feOffset dy="4.8"/>
<feGaussianBlur stdDeviation="12.2"/>
<feColorMatrix type="matrix" values="0 0 0 0 0.0745098 0 0 0 0 0.0627451 0 0 0 0 0.133333 0 0 0 0.1 0"/>
<feBlend mode="normal" in2="effect1_dropShadow_185_418" result="effect2_dropShadow_185_418"/>
<feBlend mode="normal" in="SourceGraphic" in2="effect2_dropShadow_185_418" result="shape"/>
</filter>
<linearGradient id="paint0_linear_185_418" x1="21.6132" y1="33.1177" x2="-2.19319" y2="32.6589" gradientUnits="userSpaceOnUse">
<stop stop-color="#07BE8F"/>
<stop offset="1" stop-color="#5435DB"/>
</linearGradient>
<linearGradient id="paint1_linear_185_418" x1="21.6133" y1="33.1161" x2="-2.19314" y2="32.6573" gradientUnits="userSpaceOnUse">
<stop stop-color="#07BE8F"/>
<stop offset="1" stop-color="#5435DB"/>
</linearGradient>
<linearGradient id="paint2_linear_185_418" x1="11.2719" y1="28.2188" x2="-19.3659" y2="27.6283" gradientUnits="userSpaceOnUse">
<stop stop-color="#07BE8F"/>
<stop offset="1" stop-color="#5435DB"/>
</linearGradient>
<linearGradient id="paint3_linear_185_418" x1="9.22797" y1="25.1054" x2="-21.4099" y2="24.515" gradientUnits="userSpaceOnUse">
<stop stop-color="#07BE8F"/>
<stop offset="1" stop-color="#5435DB"/>
</linearGradient>
<linearGradient id="paint4_linear_185_418" x1="8.31143" y1="46.8943" x2="-6.67187" y2="20.4013" gradientUnits="userSpaceOnUse">
<stop stop-color="#07BE8F"/>
<stop offset="1" stop-color="#5435DB"/>
</linearGradient>
<linearGradient id="paint5_linear_185_418" x1="1.61508" y1="35.09" x2="5.24083" y2="4.87024" gradientUnits="userSpaceOnUse">
<stop stop-color="#07BE8F"/>
<stop offset="1" stop-color="#5435DB"/>
</linearGradient>
<clipPath id="clip0_185_418">
<rect width="158" height="29" fill="white"/>
</clipPath>
</defs>
</svg>
