<svg width="133" height="29" viewBox="0 0 133 29" fill="none" xmlns="http://www.w3.org/2000/svg">
<g clip-path="url(#clip0_185_457)">
<mask id="mask0_185_457" style="mask-type:alpha" maskUnits="userSpaceOnUse" x="0" y="0" width="26" height="26">
<path d="M7.31018 0.802341C7.31018 0.35922 7.6694 0 8.11252 0H17.3841C17.8272 0 18.1863 0.359221 18.1863 0.802342V24.6943C18.1863 25.1374 17.8272 25.4966 17.3841 25.4966H8.11252C7.6694 25.4966 7.31018 25.1374 7.31018 24.6943V0.802341Z" fill="url(#paint0_linear_185_457)"/>
<path d="M0.802341 18.1848C0.35922 18.1848 0 17.8256 0 17.3825V8.11093C0 7.66781 0.359221 7.30859 0.802342 7.30859H24.6943C25.1374 7.30859 25.4966 7.66781 25.4966 8.11093V17.3825C25.4966 17.8256 25.1374 18.1848 24.6943 18.1848H0.802341Z" fill="url(#paint1_linear_185_457)"/>
</mask>
<g mask="url(#mask0_185_457)">
<path d="M16.2696 2.00422C16.2696 11.0653 8.9242 18.4108 -0.136875 18.4108C-9.19796 18.4108 -16.5435 11.0653 -16.5435 2.00422C-16.5435 -7.05686 -9.19796 -14.4023 -0.136875 -14.4023C8.9242 -14.4023 16.2696 -7.05686 16.2696 2.00422Z" fill="url(#paint2_linear_185_457)"/>
<g filter="url(#filter0_dd_185_457)">
<path d="M14.2257 -1.10908C14.2257 7.952 6.88022 15.2975 -2.18086 15.2975C-11.2419 15.2975 -18.5874 7.952 -18.5874 -1.10908C-18.5874 -10.1701 -11.2419 -17.5156 -2.18086 -17.5156C6.88022 -17.5156 14.2257 -10.1701 14.2257 -1.10908Z" fill="url(#paint3_linear_185_457)"/>
</g>
<path d="M33.2505 37.9152C25.5036 42.4958 15.5101 39.9289 10.9295 32.1819C6.34897 24.435 8.91584 14.4415 16.6628 9.86094C24.4098 5.28036 34.4032 7.84723 38.9838 15.5942C43.5644 23.3412 40.9975 33.3346 33.2505 37.9152Z" fill="url(#paint4_linear_185_457)"/>
<g filter="url(#filter1_dd_185_457)">
<path d="M27.0258 42.6321C18.071 41.7324 11.5411 33.7437 12.4408 24.789C13.3406 15.8342 21.3292 9.30425 30.284 10.204C39.2388 11.1038 45.7687 19.0924 44.8689 28.0472C43.9692 37.002 35.9806 43.5319 27.0258 42.6321Z" fill="url(#paint5_linear_185_457)"/>
</g>
</g>
<path d="M21.1129 22.8439C22.0686 22.8439 22.8434 22.0691 22.8434 21.1134C22.8434 20.1576 22.0686 19.3828 21.1129 19.3828C20.1571 19.3828 19.3823 20.1576 19.3823 21.1134C19.3823 22.0691 20.1571 22.8439 21.1129 22.8439Z" fill="#07BE8F"/>
<path d="M23.7235 24.6756C24.3567 24.6756 24.8699 24.1623 24.8699 23.5292C24.8699 22.8961 24.3567 22.3828 23.7235 22.3828C23.0904 22.3828 22.5771 22.8961 22.5771 23.5292C22.5771 24.1623 23.0904 24.6756 23.7235 24.6756Z" fill="#1F9CC6"/>
<path d="M12.7483 29.001C18.5528 29.001 23.2584 28.5653 23.2584 28.0278C23.2584 27.4904 18.5528 27.0547 12.7483 27.0547C6.94369 27.0547 2.23816 27.4904 2.23816 28.0278C2.23816 28.5653 6.94369 29.001 12.7483 29.001Z" fill="#479681" fill-opacity="0.14"/>
<path d="M127.283 22C126.738 22 126.177 21.9455 125.6 21.8365C125.023 21.734 124.488 21.609 123.994 21.4615C123.501 21.3077 123.11 21.1603 122.821 21.0192L123.11 18.4038C123.558 18.6218 124.026 18.8237 124.513 19.0096C125.001 19.1955 125.501 19.3462 126.013 19.4615C126.526 19.5769 127.045 19.6346 127.571 19.6346C128.225 19.6346 128.751 19.5064 129.148 19.25C129.545 18.9936 129.744 18.6026 129.744 18.0769C129.744 17.6731 129.632 17.3494 129.408 17.1058C129.183 16.8558 128.84 16.6346 128.379 16.4423C127.917 16.2436 127.327 16.0192 126.61 15.7692C125.892 15.5192 125.247 15.2372 124.677 14.9231C124.106 14.6026 123.654 14.1987 123.321 13.7115C122.988 13.2244 122.821 12.6026 122.821 11.8462C122.821 11.1026 123.004 10.4423 123.369 9.86538C123.735 9.28205 124.279 8.82692 125.004 8.5C125.735 8.16667 126.642 8 127.725 8C128.545 8 129.327 8.09295 130.071 8.27885C130.815 8.45833 131.449 8.65385 131.975 8.86538L131.725 11.3846C130.968 11.0449 130.257 10.7885 129.59 10.6154C128.93 10.4359 128.257 10.3462 127.571 10.3462C126.853 10.3462 126.299 10.4647 125.908 10.7019C125.517 10.9391 125.321 11.2949 125.321 11.7692C125.321 12.1474 125.43 12.4519 125.648 12.6827C125.866 12.9135 126.177 13.1122 126.581 13.2788C126.985 13.4391 127.468 13.609 128.033 13.7885C129.007 14.0962 129.824 14.4359 130.485 14.8077C131.151 15.1731 131.651 15.6186 131.985 16.1442C132.324 16.6635 132.494 17.3077 132.494 18.0769C132.494 18.4615 132.433 18.8814 132.311 19.3365C132.19 19.7853 131.949 20.2115 131.59 20.6154C131.231 21.0192 130.706 21.3526 130.013 21.6154C129.327 21.8718 128.417 22 127.283 22Z" fill="white"/>
<path d="M109.331 21.735V8.27344H111.793V13.6004H117.947V8.27344H120.408V21.735H117.947V15.9081H111.793V21.735H109.331Z" fill="white"/>
<path d="M98.4014 21.735V8.27344H107.017V10.6581H100.921V13.5234H105.651V15.9081H100.921V19.3504H107.209V21.735H98.4014Z" fill="white"/>
<path d="M86.2157 21.9225C85.7029 21.9225 85.2349 21.8103 84.8119 21.5859C84.3888 21.3552 84.0522 21.025 83.8022 20.5956C83.5522 20.1661 83.4272 19.6468 83.4272 19.0379C83.4272 18.493 83.5522 18.0282 83.8022 17.6436C84.0587 17.2526 84.392 16.9289 84.8022 16.6725C85.2189 16.4097 85.6676 16.2045 86.1484 16.0571C86.6356 15.9032 87.1131 15.7911 87.5811 15.7206C88.0555 15.65 88.4721 15.6084 88.8311 15.5956C88.8055 15.0443 88.6644 14.6436 88.408 14.3936C88.1516 14.1436 87.7157 14.0186 87.1003 14.0186C86.6708 14.0186 86.251 14.0795 85.8407 14.2013C85.4369 14.3167 84.9785 14.4994 84.4657 14.7494L84.2542 12.8071C84.8311 12.525 85.408 12.3135 85.9849 12.1725C86.5683 12.0315 87.158 11.9609 87.7542 11.9609C88.4721 11.9609 89.0907 12.0891 89.6099 12.3456C90.1292 12.602 90.5298 13.0154 90.8119 13.5859C91.0939 14.15 91.235 14.8968 91.235 15.8263V18.4225C91.235 18.9032 91.2574 19.2526 91.3023 19.4706C91.3471 19.6821 91.4305 19.8167 91.5523 19.8744C91.6741 19.9321 91.8503 19.9609 92.0811 19.9609H92.3888L92.1773 21.9225H91.3119C90.9529 21.9225 90.6324 21.8744 90.3503 21.7782C90.0747 21.6885 89.8375 21.5603 89.6388 21.3936C89.4401 21.227 89.2798 21.0315 89.158 20.8071C88.8439 21.1597 88.4176 21.4353 87.8792 21.634C87.3471 21.8263 86.7926 21.9225 86.2157 21.9225ZM87.2157 20.0956C87.4273 20.0956 87.6901 20.0411 88.0042 19.9321C88.3183 19.8167 88.6003 19.6404 88.8503 19.4032V17.2109C88.4016 17.2302 87.9529 17.3039 87.5042 17.4321C87.0555 17.5603 86.6805 17.7494 86.3792 17.9994C86.0779 18.2494 85.9273 18.5635 85.9273 18.9417C85.9273 19.3327 86.0298 19.6244 86.2349 19.8167C86.4401 20.0026 86.767 20.0956 87.2157 20.0956Z" fill="white"/>
<path d="M77.9038 21.7296V12.1142H80.1346L80.1923 13.1334C80.4359 12.8642 80.7788 12.595 81.2211 12.3257C81.6634 12.0565 82.1474 11.9219 82.673 11.9219C82.8269 11.9219 82.9679 11.9347 83.0961 11.9603L82.923 14.3065C82.782 14.268 82.641 14.2424 82.5 14.2296C82.3653 14.2167 82.2307 14.2103 82.0961 14.2103C81.6923 14.2103 81.3237 14.3033 80.9903 14.4892C80.657 14.6751 80.423 14.9026 80.2884 15.1719V21.7296H77.9038Z" fill="white"/>
<path d="M71.3018 21.9219C70.2569 21.9219 69.3659 21.6943 68.6287 21.2392C67.8916 20.7841 67.3274 20.1783 66.9364 19.4219C66.5518 18.6655 66.3595 17.8385 66.3595 16.9411C66.3595 16.0373 66.5518 15.2039 66.9364 14.4411C67.3274 13.6783 67.8916 13.0693 68.6287 12.6142C69.3659 12.1526 70.2569 11.9219 71.3018 11.9219C72.3467 11.9219 73.2377 12.1526 73.9749 12.6142C74.7121 13.0693 75.273 13.6783 75.6576 14.4411C76.0486 15.2039 76.2441 16.0373 76.2441 16.9411C76.2441 17.8385 76.0486 18.6655 75.6576 19.4219C75.273 20.1783 74.7121 20.7841 73.9749 21.2392C73.2377 21.6943 72.3467 21.9219 71.3018 21.9219ZM71.3018 19.9603C72.1031 19.9603 72.7185 19.6815 73.148 19.1238C73.5839 18.5597 73.8018 17.8321 73.8018 16.9411C73.8018 16.0373 73.5839 15.3033 73.148 14.7392C72.7185 14.1687 72.1031 13.8834 71.3018 13.8834C70.5069 13.8834 69.8916 14.1687 69.4557 14.7392C69.0198 15.3033 68.8018 16.0373 68.8018 16.9411C68.8018 17.8321 69.0198 18.5597 69.4557 19.1238C69.8916 19.6815 70.5069 19.9603 71.3018 19.9603Z" fill="white"/>
<path d="M56.8674 21.7365L60.0597 16.9288L56.8674 12.1211H59.7136L61.4636 14.9096L63.079 12.1211H65.9251L62.7328 16.9288L65.9251 21.7365H63.079L61.329 18.948L59.7136 21.7365H56.8674Z" fill="white"/>
<path d="M52.603 21.9225C51.4428 21.9225 50.4748 21.6917 49.6992 21.2302C48.9299 20.7622 48.353 20.1468 47.9684 19.384C47.5838 18.6148 47.3915 17.775 47.3915 16.8648C47.3915 15.9866 47.571 15.1757 47.9299 14.4321C48.2953 13.6885 48.8274 13.0923 49.5261 12.6436C50.2248 12.1885 51.0774 11.9609 52.0838 11.9609C53.0069 11.9609 53.7761 12.15 54.3915 12.5282C55.0069 12.9065 55.4684 13.4129 55.7761 14.0475C56.0838 14.6757 56.2376 15.3712 56.2376 16.134C56.2376 16.3456 56.2248 16.5603 56.1992 16.7782C56.1735 16.9898 56.1351 17.2109 56.0838 17.4417H49.8723C49.962 18.0379 50.1479 18.5218 50.4299 18.8936C50.7184 19.259 51.0678 19.5282 51.478 19.7013C51.8947 19.8744 52.3402 19.9609 52.8146 19.9609C53.3723 19.9609 53.8915 19.8904 54.3723 19.7494C54.853 19.602 55.2953 19.4097 55.6992 19.1725L55.8146 21.1917C55.4492 21.384 54.9941 21.5539 54.4492 21.7013C53.9043 21.8488 53.2889 21.9225 52.603 21.9225ZM49.9299 15.8263H53.8146C53.8146 15.5379 53.7601 15.2494 53.6511 14.9609C53.5421 14.6661 53.3594 14.4193 53.103 14.2206C52.853 14.0218 52.5133 13.9225 52.0838 13.9225C51.4684 13.9225 50.9844 14.102 50.6319 14.4609C50.2793 14.8199 50.0453 15.275 49.9299 15.8263Z" fill="white"/>
<path d="M35 21.735V8.27344H37.4231L43.1731 16.9657V8.27344H45.6346V21.735H43.6154L37.4615 12.5042V21.735H35Z" fill="white"/>
</g>
<defs>
<filter id="filter0_dd_185_457" x="-42.9874" y="-37.1156" width="81.6131" height="81.6125" filterUnits="userSpaceOnUse" color-interpolation-filters="sRGB">
<feFlood flood-opacity="0" result="BackgroundImageFix"/>
<feColorMatrix in="SourceAlpha" type="matrix" values="0 0 0 0 0 0 0 0 0 0 0 0 0 0 0 0 0 0 127 0" result="hardAlpha"/>
<feOffset dy="4"/>
<feGaussianBlur stdDeviation="6.5"/>
<feColorMatrix type="matrix" values="0 0 0 0 0.0745098 0 0 0 0 0.0627451 0 0 0 0 0.133333 0 0 0 0.06 0"/>
<feBlend mode="normal" in2="BackgroundImageFix" result="effect1_dropShadow_185_457"/>
<feColorMatrix in="SourceAlpha" type="matrix" values="0 0 0 0 0 0 0 0 0 0 0 0 0 0 0 0 0 0 127 0" result="hardAlpha"/>
<feOffset dy="4.8"/>
<feGaussianBlur stdDeviation="12.2"/>
<feColorMatrix type="matrix" values="0 0 0 0 0.0745098 0 0 0 0 0.0627451 0 0 0 0 0.133333 0 0 0 0.1 0"/>
<feBlend mode="normal" in2="effect1_dropShadow_185_457" result="effect2_dropShadow_185_457"/>
<feBlend mode="normal" in="SourceGraphic" in2="effect2_dropShadow_185_457" result="shape"/>
</filter>
<filter id="filter1_dd_185_457" x="-12.0421" y="-9.47891" width="81.3939" height="81.3937" filterUnits="userSpaceOnUse" color-interpolation-filters="sRGB">
<feFlood flood-opacity="0" result="BackgroundImageFix"/>
<feColorMatrix in="SourceAlpha" type="matrix" values="0 0 0 0 0 0 0 0 0 0 0 0 0 0 0 0 0 0 127 0" result="hardAlpha"/>
<feOffset dy="4"/>
<feGaussianBlur stdDeviation="6.5"/>
<feColorMatrix type="matrix" values="0 0 0 0 0.0745098 0 0 0 0 0.0627451 0 0 0 0 0.133333 0 0 0 0.06 0"/>
<feBlend mode="normal" in2="BackgroundImageFix" result="effect1_dropShadow_185_457"/>
<feColorMatrix in="SourceAlpha" type="matrix" values="0 0 0 0 0 0 0 0 0 0 0 0 0 0 0 0 0 0 127 0" result="hardAlpha"/>
<feOffset dy="4.8"/>
<feGaussianBlur stdDeviation="12.2"/>
<feColorMatrix type="matrix" values="0 0 0 0 0.0745098 0 0 0 0 0.0627451 0 0 0 0 0.133333 0 0 0 0.1 0"/>
<feBlend mode="normal" in2="effect1_dropShadow_185_457" result="effect2_dropShadow_185_457"/>
<feBlend mode="normal" in="SourceGraphic" in2="effect2_dropShadow_185_457" result="shape"/>
</filter>
<linearGradient id="paint0_linear_185_457" x1="21.6132" y1="33.1177" x2="-2.19319" y2="32.6589" gradientUnits="userSpaceOnUse">
<stop stop-color="#07BE8F"/>
<stop offset="1" stop-color="#5435DB"/>
</linearGradient>
<linearGradient id="paint1_linear_185_457" x1="21.6133" y1="33.1161" x2="-2.19314" y2="32.6573" gradientUnits="userSpaceOnUse">
<stop stop-color="#07BE8F"/>
<stop offset="1" stop-color="#5435DB"/>
</linearGradient>
<linearGradient id="paint2_linear_185_457" x1="11.2719" y1="28.2188" x2="-19.3659" y2="27.6283" gradientUnits="userSpaceOnUse">
<stop stop-color="#07BE8F"/>
<stop offset="1" stop-color="#5435DB"/>
</linearGradient>
<linearGradient id="paint3_linear_185_457" x1="9.22797" y1="25.1054" x2="-21.4099" y2="24.515" gradientUnits="userSpaceOnUse">
<stop stop-color="#07BE8F"/>
<stop offset="1" stop-color="#5435DB"/>
</linearGradient>
<linearGradient id="paint4_linear_185_457" x1="8.31143" y1="46.8943" x2="-6.67187" y2="20.4013" gradientUnits="userSpaceOnUse">
<stop stop-color="#07BE8F"/>
<stop offset="1" stop-color="#5435DB"/>
</linearGradient>
<linearGradient id="paint5_linear_185_457" x1="1.61508" y1="35.09" x2="5.24083" y2="4.87024" gradientUnits="userSpaceOnUse">
<stop stop-color="#07BE8F"/>
<stop offset="1" stop-color="#5435DB"/>
</linearGradient>
<clipPath id="clip0_185_457">
<rect width="132.494" height="29.001" fill="white"/>
</clipPath>
</defs>
</svg>
