<svg width="40" height="40" viewBox="0 0 40 40" fill="none" xmlns="http://www.w3.org/2000/svg">
<rect width="40" height="40" rx="8" fill="white"/>
<g clip-path="url(#clip0_56681_13406)">
<path d="M18.9521 4.00861C18.8833 4.01487 18.6643 4.03676 18.4673 4.0524C13.9222 4.46211 9.66491 6.91415 6.96852 10.6829C5.46706 12.7784 4.50674 15.1554 4.14389 17.6731C4.01564 18.5519 4 18.8115 4 20.0031C4 21.1947 4.01564 21.4543 4.14389 22.3332C5.01349 28.3413 9.28954 33.3892 15.089 35.2595C16.1275 35.5942 17.2223 35.8225 18.4673 35.9601C18.9521 36.0133 21.0479 36.0133 21.5327 35.9601C23.6817 35.7224 25.5023 35.1907 27.2978 34.2743C27.573 34.1336 27.6262 34.0961 27.5887 34.0648C27.5636 34.046 26.3906 32.4729 24.983 30.5713L22.4242 27.1153L19.218 22.3707C17.4538 19.7623 16.0023 17.6293 15.9898 17.6293C15.9773 17.6262 15.9648 19.7342 15.9586 22.3082C15.9492 26.815 15.946 26.9964 15.8897 27.1028C15.8084 27.256 15.7458 27.3186 15.6145 27.3874C15.5144 27.4374 15.4268 27.4468 14.9544 27.4468H14.4133L14.2694 27.3561C14.1756 27.2967 14.1067 27.2185 14.0598 27.1278L13.9941 26.9871L14.0004 20.7162L14.0098 14.4423L14.1067 14.3203C14.1568 14.2546 14.2631 14.1702 14.3382 14.1295C14.4665 14.067 14.5165 14.0607 15.0577 14.0607C15.6958 14.0607 15.8022 14.0857 15.9679 14.2671C16.0149 14.3172 17.7509 16.9318 19.828 20.0813C21.905 23.2308 24.7453 27.5313 26.1404 29.6424L28.6741 33.4799L28.8023 33.3955C29.9378 32.6574 31.139 31.6065 32.0899 30.5119C34.1138 28.188 35.4182 25.3544 35.8561 22.3332C35.9844 21.4543 36 21.1947 36 20.0031C36 18.8115 35.9844 18.5519 35.8561 17.6731C34.9865 11.665 30.7105 6.61703 24.911 4.74672C23.8882 4.4152 22.7996 4.18688 21.5797 4.04927C21.2794 4.01799 19.2117 3.98359 18.9521 4.00861ZM25.5022 13.6854C25.6524 13.7605 25.7744 13.9043 25.8182 14.0544C25.8432 14.1358 25.8495 15.8747 25.8432 19.7936L25.8338 25.417L24.8422 23.897L23.8475 22.377V18.2892C23.8475 15.6464 23.86 14.1608 23.8788 14.0889C23.9288 13.9137 24.0383 13.7761 24.1885 13.6948C24.3167 13.6291 24.3636 13.6228 24.8547 13.6228C25.3177 13.6228 25.399 13.6291 25.5022 13.6854Z" fill="black"/>
</g>
<defs>
<clipPath id="clip0_56681_13406">
<rect width="32" height="32" fill="white" transform="translate(4 4)"/>
</clipPath>
</defs>
</svg>
